<svg width="256" height="256" viewBox="0 0 256 256" fill="none" xmlns="http://www.w3.org/2000/svg">
<rect width="256" height="256" fill="white"/>
<path d="M232.414 120.564L188.081 43.7258C184.889 38.2289 179.037 34.8599 172.712 34.8599H84.0448C77.7199 34.8599 71.8679 38.2289 68.7054 43.7258L24.3718 120.564C21.2094 126.061 21.2094 132.799 24.3718 138.296L68.7054 215.134C71.8679 220.631 77.7199 224 84.0448 224H172.712C179.037 224 184.889 220.631 188.051 215.134L232.385 138.296C235.577 132.799 235.577 126.061 232.414 120.564Z" fill="url(#paint0_radial)"/>
<path fill-rule="evenodd" clip-rule="evenodd" d="M33.0594 20.0834H130.049C136.187 20.0834 141.156 25.0522 141.156 31.1902V68.2128C141.156 74.3507 136.187 79.3195 130.049 79.3195H95.2671L100.041 91.0109L79.0454 79.3195H33.1081C26.9702 79.3195 22.0013 74.3507 22.0013 68.2128V31.1902C21.9526 25.1009 26.9214 20.0834 33.0594 20.0834Z" fill="url(#paint1_radial)"/>
<path d="M27.9413 30.1676C28.6233 29.2421 29.6463 28.7549 31.0103 28.6575C33.4947 28.4626 34.9074 29.6318 35.2484 32.1649C36.7585 42.3461 38.4148 50.9685 40.1685 58.032L50.8369 37.7183C51.8111 35.8672 53.029 34.8929 54.4904 34.7955C56.6338 34.6493 57.9491 36.0133 58.485 38.8874C59.7028 45.3664 61.2617 50.8711 63.1128 55.5476C64.3793 43.1743 66.5228 34.2596 69.543 28.7549C70.2737 27.3909 71.3454 26.7089 72.7581 26.6115C73.8786 26.5141 74.9016 26.8551 75.8271 27.5858C76.7527 28.3165 77.2398 29.2421 77.3373 30.3625C77.386 31.2393 77.2398 31.9701 76.8501 32.7008C74.9503 36.2082 73.3914 42.1026 72.1249 50.2865C70.907 58.2269 70.4686 64.4136 70.7609 68.8465C70.8583 70.0644 70.6634 71.1361 70.1763 72.0616C69.5917 73.1334 68.7149 73.7179 67.5945 73.8154C66.3279 73.9128 65.0126 73.3282 63.7461 72.0129C59.2157 67.3851 55.6108 60.4677 52.9803 51.2608C49.8139 57.4962 47.4756 62.1727 45.9655 65.2904C43.0913 70.7951 40.6557 73.6205 38.6097 73.7666C37.2944 73.8641 36.174 72.7436 35.1997 70.4054C32.7153 64.0238 30.036 51.6992 27.1619 33.4315C27.0157 32.1649 27.2593 31.0445 27.9413 30.1676Z" fill="#F4F4F4"/>
<path d="M132.674 37.8149C130.921 34.746 128.339 32.8948 124.88 32.1641C123.954 31.9693 123.078 31.8718 122.249 31.8718C117.573 31.8718 113.773 34.3075 110.802 39.1789C108.269 43.3196 107.002 47.8987 107.002 52.9163C107.002 56.6672 107.781 59.8824 109.34 62.5616C111.094 65.6306 113.676 67.4817 117.134 68.2124C118.06 68.4073 118.937 68.5047 119.765 68.5047C124.49 68.5047 128.29 66.069 131.213 61.1976C133.746 57.0082 135.012 52.4291 135.012 47.4116C135.012 43.6119 134.233 40.4455 132.674 37.8149ZM126.536 51.3087C125.854 54.5238 124.636 56.9108 122.834 58.5184C121.421 59.7849 120.106 60.3208 118.888 60.0772C117.719 59.8336 116.745 58.8106 116.014 56.9108C115.429 55.4007 115.137 53.8905 115.137 52.4778C115.137 51.26 115.235 50.0421 115.478 48.9217C115.917 46.9244 116.745 44.9759 118.06 43.1248C119.668 40.7378 121.373 39.7635 123.126 40.1045C124.295 40.3481 125.27 41.371 126 43.2709C126.585 44.781 126.877 46.2912 126.877 47.7039C126.877 48.9704 126.731 50.1883 126.536 51.3087Z" fill="#F4F4F4"/>
<path d="M102.133 37.8149C100.379 34.746 97.7489 32.8948 94.339 32.1641C93.4134 31.9693 92.5366 31.8718 91.7084 31.8718C87.0319 31.8718 83.2322 34.3075 80.2606 39.1789C77.7275 43.3196 76.4609 47.8987 76.4609 52.9163C76.4609 56.6672 77.2404 59.8824 78.7992 62.5616C80.5529 65.6306 83.1348 67.4817 86.5934 68.2124C87.519 68.4073 88.3959 68.5047 89.224 68.5047C93.9493 68.5047 97.7489 66.069 100.672 61.1976C103.205 57.0082 104.471 52.4291 104.471 47.4116C104.471 43.6119 103.692 40.4455 102.133 37.8149ZM95.9952 51.3087C95.3132 54.5238 94.0954 56.9108 92.293 58.5184C90.8803 59.7849 89.565 60.3208 88.3472 60.0772C87.178 59.8336 86.2037 58.8106 85.473 56.9108C84.8884 55.4007 84.5962 53.8905 84.5962 52.4778C84.5962 51.26 84.6936 50.0421 84.9372 48.9217C85.3756 46.9244 86.2037 44.9759 87.519 43.1248C89.1266 40.7378 90.8316 39.7635 92.5853 40.1045C93.7544 40.3481 94.7287 41.371 95.4594 43.2709C96.0439 44.781 96.3362 46.2912 96.3362 47.7039C96.3362 48.9704 96.2388 50.1883 95.9952 51.3087Z" fill="#F4F4F4"/>
<defs>
<radialGradient id="paint0_radial" cx="0" cy="0" r="1" gradientUnits="userSpaceOnUse" gradientTransform="translate(182.071 221.537) scale(212.856 212.837)">
<stop stop-color="#EC991C"/>
<stop offset="1" stop-color="#E9B213"/>
</radialGradient>
<radialGradient id="paint1_radial" cx="0" cy="0" r="1" gradientUnits="userSpaceOnUse" gradientTransform="translate(22.1671 20.0834) rotate(30.7841) scale(138.583 122.327)">
<stop offset="0.187845" stop-color="#9B5C8F"/>
<stop offset="0.61326" stop-color="#9B5C8F" stop-opacity="0.8565"/>
<stop offset="1" stop-color="#9B5C8F" stop-opacity="0.6"/>
</radialGradient>
</defs>
</svg>
