<svg width="256" height="256" viewBox="0 0 256 256" fill="none" xmlns="http://www.w3.org/2000/svg">
<rect width="256" height="256" fill="white"/>
<path d="M233.596 119L188.592 41C185.352 35.42 179.411 32 172.991 32H82.983C76.5624 32 70.6219 35.42 67.4116 41L22.4077 119C19.1974 124.58 19.1974 131.42 22.4077 137L67.4116 215C70.6219 220.58 76.5624 224 82.983 224H172.991C179.411 224 185.352 220.58 188.562 215L233.566 137C236.806 131.42 236.806 124.58 233.596 119Z" fill="url(#paint0_radial)"/>
<path fill-rule="evenodd" clip-rule="evenodd" d="M223.1 20H108.235C100.966 20 95.0809 25.8846 95.0809 33.1538V77C95.0809 84.2692 100.966 90.1538 108.235 90.1538H149.427L143.773 104L168.639 90.1538H223.043C230.312 90.1538 236.196 84.2692 236.196 77V33.1538C236.254 25.9423 230.369 20 223.1 20Z" fill="#9B5C8F"/>
<path d="M102.12 31.9425C102.928 30.8464 104.139 30.2694 105.754 30.154C108.697 29.9233 110.37 31.3079 110.774 34.3079C112.562 46.3656 114.524 56.5771 116.601 64.9425L129.235 40.8848C130.389 38.6925 131.831 37.5387 133.562 37.4233C136.101 37.2502 137.658 38.8656 138.293 42.2694C139.735 49.9425 141.581 56.4618 143.774 62.0002C145.274 47.3464 147.812 36.7887 151.389 30.2694C152.255 28.6541 153.524 27.8464 155.197 27.731C156.524 27.6156 157.735 28.0194 158.831 28.8848C159.928 29.7502 160.505 30.8464 160.62 32.1733C160.678 33.2117 160.505 34.0771 160.043 34.9425C157.793 39.0964 155.947 46.0771 154.447 55.7695C153.004 65.1733 152.485 72.5002 152.831 77.7502C152.947 79.1925 152.716 80.4618 152.139 81.5579C151.447 82.8271 150.408 83.5195 149.081 83.6348C147.581 83.7502 146.024 83.0579 144.524 81.5002C139.158 76.0194 134.889 67.8271 131.774 56.9233C128.024 64.3079 125.254 69.8464 123.466 73.5387C120.062 80.0579 117.178 83.4041 114.754 83.5771C113.197 83.6925 111.87 82.3656 110.716 79.5964C107.774 72.0387 104.601 57.4425 101.197 35.8079C101.024 34.3079 101.312 32.981 102.12 31.9425Z" fill="white"/>
<path d="M226.158 41.0001C224.081 37.3655 221.024 35.1732 216.928 34.3078C215.831 34.0771 214.793 33.9617 213.812 33.9617C208.274 33.9617 203.774 36.8463 200.254 42.6155C197.254 47.5194 195.754 52.9424 195.754 58.8848C195.754 63.3271 196.677 67.1348 198.524 70.3078C200.601 73.9424 203.658 76.1348 207.754 77.0001C208.851 77.2309 209.889 77.3463 210.87 77.3463C216.466 77.3463 220.966 74.4617 224.428 68.6924C227.428 63.7309 228.928 58.3078 228.928 52.3655C228.928 47.8655 228.004 44.1155 226.158 41.0001ZM218.889 56.9809C218.081 60.7886 216.639 63.6155 214.504 65.5194C212.831 67.0194 211.274 67.654 209.831 67.3655C208.447 67.0771 207.293 65.8655 206.428 63.6155C205.735 61.8271 205.389 60.0386 205.389 58.3655C205.389 56.9232 205.504 55.4809 205.793 54.154C206.312 51.7886 207.293 49.4809 208.851 47.2886C210.754 44.4617 212.774 43.3078 214.851 43.7117C216.235 44.0001 217.389 45.2117 218.254 47.4617C218.947 49.2501 219.293 51.0386 219.293 52.7117C219.293 54.2117 219.12 55.654 218.889 56.9809Z" fill="white"/>
<path d="M189.985 41.0001C187.908 37.3655 184.793 35.1732 180.754 34.3078C179.658 34.0771 178.62 33.9617 177.639 33.9617C172.101 33.9617 167.601 36.8463 164.081 42.6155C161.081 47.5194 159.581 52.9424 159.581 58.8848C159.581 63.3271 160.504 67.1348 162.351 70.3078C164.428 73.9424 167.485 76.1348 171.581 77.0001C172.678 77.2309 173.716 77.3463 174.697 77.3463C180.293 77.3463 184.793 74.4617 188.254 68.6924C191.254 63.7309 192.754 58.3078 192.754 52.3655C192.754 47.8655 191.831 44.1155 189.985 41.0001ZM182.716 56.9809C181.908 60.7886 180.466 63.6155 178.331 65.5194C176.658 67.0194 175.101 67.654 173.658 67.3655C172.274 67.0771 171.12 65.8655 170.254 63.6155C169.562 61.8271 169.216 60.0386 169.216 58.3655C169.216 56.9232 169.331 55.4809 169.62 54.154C170.139 51.7886 171.12 49.4809 172.678 47.2886C174.581 44.4617 176.601 43.3078 178.678 43.7117C180.062 44.0001 181.216 45.2117 182.081 47.4617C182.774 49.2501 183.12 51.0386 183.12 52.7117C183.12 54.2117 183.004 55.654 182.716 56.9809Z" fill="white"/>
<defs>
<radialGradient id="paint0_radial" cx="0" cy="0" r="1" gradientUnits="userSpaceOnUse" gradientTransform="translate(182.492 221.5) scale(216.074 216.056)">
<stop stop-color="#EC991C"/>
<stop offset="1" stop-color="#E9B213"/>
</radialGradient>
</defs>
</svg>
